<svg width="146" height="92" viewBox="0 0 146 92" fill="none" xmlns="http://www.w3.org/2000/svg">
<rect width="146" height="92" fill="#6C63FF"/>
<path d="M48.8558 87.5487H4V71.246V5H21.5523L22.3881 71.246H48.8558H67.8011C68.9351 78.8001 65.5576 90.438 48.8558 87.5487Z" fill="white"/>
<path d="M60.688 60.04C59.512 60.04 58.18 59.824 56.692 59.392C55.228 58.984 53.704 58.468 52.12 57.844C50.56 57.22 49.048 56.572 47.584 55.9C46.12 55.252 44.812 54.688 43.66 54.208C42.58 55.384 41.332 56.356 39.916 57.124C38.5 57.916 36.88 58.312 35.056 58.312C33.304 58.312 31.996 57.964 31.132 57.268C30.268 56.572 29.836 55.78 29.836 54.892C29.836 54.268 30.052 53.668 30.484 53.092C30.94 52.492 31.612 52 32.5 51.616C33.388 51.232 34.492 51.04 35.812 51.04C37.18 51.04 38.476 51.208 39.7 51.544C40.924 51.856 42.124 52.24 43.3 52.696C43.924 51.928 44.512 51.088 45.064 50.176C45.616 49.24 46.144 48.292 46.648 47.332C45.856 47.404 45.052 47.44 44.236 47.44C42.556 47.44 40.828 47.26 39.052 46.9C37.588 46.588 36.472 46.036 35.704 45.244C34.96 44.428 34.588 43.552 34.588 42.616C34.588 41.512 35.104 40.456 36.136 39.448C37.168 38.416 38.74 37.708 40.852 37.324H40.996C41.188 37.324 41.344 37.396 41.464 37.54C41.608 37.66 41.68 37.804 41.68 37.972C41.68 38.284 41.5 38.476 41.14 38.548C39.292 38.884 37.96 39.424 37.144 40.168C36.352 40.888 35.956 41.632 35.956 42.4C35.956 43.144 36.256 43.828 36.856 44.452C37.48 45.052 38.308 45.448 39.34 45.64C41.044 46 42.7 46.18 44.308 46.18C45.34 46.18 46.336 46.108 47.296 45.964C47.944 44.596 48.58 43.24 49.204 41.896C49.828 40.552 50.464 39.304 51.112 38.152C51.784 36.976 52.504 35.98 53.272 35.164C54.088 34.324 54.892 33.712 55.684 33.328C56.476 32.944 57.208 32.752 57.88 32.752C58.888 32.752 59.716 33.1 60.364 33.796C61.036 34.468 61.372 35.332 61.372 36.388C61.372 37.132 61.18 37.924 60.796 38.764C60.412 39.604 59.8 40.456 58.96 41.32C57.424 42.904 55.744 44.176 53.92 45.136C52.12 46.072 50.224 46.72 48.232 47.08C48.064 47.44 47.896 47.788 47.728 48.124C47.584 48.436 47.428 48.748 47.26 49.06C46.876 49.756 46.456 50.464 46 51.184C45.544 51.88 45.052 52.564 44.524 53.236C45.316 53.596 46.108 53.968 46.9 54.352C47.716 54.712 48.544 55.06 49.384 55.396C50.008 55.636 50.788 55.948 51.724 56.332C52.66 56.716 53.656 57.1 54.712 57.484C55.792 57.868 56.848 58.18 57.88 58.42C58.936 58.684 59.872 58.816 60.688 58.816C61.072 58.816 61.408 58.78 61.696 58.708C61.744 58.708 61.78 58.696 61.804 58.672C61.828 58.672 61.852 58.672 61.876 58.672C62.068 58.672 62.212 58.744 62.308 58.888C62.428 59.032 62.488 59.188 62.488 59.356C62.488 59.668 62.32 59.86 61.984 59.932C61.6 60.004 61.168 60.04 60.688 60.04ZM54.244 36.028C53.524 36.796 52.852 37.72 52.228 38.8C51.604 39.856 51.016 40.984 50.464 42.184C49.912 43.36 49.384 44.524 48.88 45.676C50.56 45.268 52.168 44.644 53.704 43.804C55.24 42.94 56.668 41.836 57.988 40.492C58.708 39.748 59.224 39.028 59.536 38.332C59.848 37.612 60.004 36.964 60.004 36.388C60.004 35.692 59.8 35.128 59.392 34.696C59.008 34.24 58.492 34.012 57.844 34.012C57.34 34.012 56.776 34.18 56.152 34.516C55.552 34.828 54.916 35.332 54.244 36.028ZM31.168 54.892C31.168 55.444 31.48 55.936 32.104 56.368C32.752 56.824 33.736 57.052 35.056 57.052C36.592 57.052 37.96 56.74 39.16 56.116C40.384 55.516 41.476 54.712 42.436 53.704H42.4C41.344 53.296 40.264 52.96 39.16 52.696C38.056 52.408 36.94 52.264 35.812 52.264C34.3 52.264 33.148 52.54 32.356 53.092C31.564 53.644 31.168 54.244 31.168 54.892ZM58.5491 55.54C57.8051 55.54 57.1691 55.312 56.6411 54.856C56.1371 54.4 55.8851 53.608 55.8851 52.48C55.8851 51.712 56.0771 50.812 56.4611 49.78C56.8691 48.748 57.4091 47.752 58.0811 46.792C58.7531 45.808 59.4971 45.004 60.3131 44.38C61.1291 43.732 61.9571 43.408 62.7971 43.408C63.3491 43.408 63.7571 43.612 64.0211 44.02C64.3091 44.404 64.4531 44.872 64.4531 45.424C64.4531 46.24 64.1891 47.032 63.6611 47.8C63.1331 48.568 62.4611 49.192 61.6451 49.672C60.8531 50.152 60.0611 50.392 59.2691 50.392C58.6211 50.392 58.1291 50.188 57.7931 49.78C57.6011 50.26 57.4451 50.728 57.3251 51.184C57.2051 51.64 57.1451 52.072 57.1451 52.48C57.1451 53.176 57.2891 53.668 57.5771 53.956C57.8891 54.22 58.2731 54.352 58.7291 54.352C59.2811 54.352 59.8931 54.208 60.5651 53.92C61.2611 53.632 61.9091 53.296 62.5091 52.912C63.1091 52.504 63.5531 52.168 63.8411 51.904C64.3211 51.496 64.7771 51.052 65.2091 50.572C65.6651 50.068 66.0611 49.6 66.3971 49.168C66.5171 49.024 66.6491 48.952 66.7931 48.952C66.9371 48.952 67.0571 49.024 67.1531 49.168C67.2731 49.288 67.3331 49.444 67.3331 49.636C67.3331 49.804 67.2731 49.972 67.1531 50.14C66.7691 50.62 66.2891 51.172 65.7131 51.796C65.1611 52.396 64.5371 52.96 63.8411 53.488C63.4571 53.8 62.9651 54.112 62.3651 54.424C61.7651 54.736 61.1291 55 60.4571 55.216C59.8091 55.432 59.1731 55.54 58.5491 55.54ZM59.1971 49.24C59.6771 49.24 60.1931 49.084 60.7451 48.772C61.3211 48.46 61.8251 48.052 62.2571 47.548C62.7131 47.02 63.0131 46.456 63.1571 45.856C63.1811 45.808 63.1931 45.748 63.1931 45.676C63.1931 45.604 63.1931 45.544 63.1931 45.496C63.1931 45.064 63.0371 44.848 62.7251 44.848C62.2211 44.848 61.6931 45.04 61.1411 45.424C60.5891 45.784 60.0611 46.276 59.5571 46.9C59.0771 47.5 58.6451 48.16 58.2611 48.88C58.3571 48.952 58.4531 49.024 58.5491 49.096C58.6451 49.144 58.7411 49.18 58.8371 49.204C58.8851 49.228 58.9451 49.24 59.0171 49.24C59.0891 49.24 59.1491 49.24 59.1971 49.24ZM66.9202 55.18C66.2482 55.18 65.7442 54.988 65.4082 54.604C65.0962 54.196 64.9402 53.692 64.9402 53.092C64.9402 52.42 65.1322 51.64 65.5162 50.752C65.9242 49.84 66.4522 48.904 67.1002 47.944C67.7482 46.984 68.4562 46.096 69.2242 45.28C70.0162 44.44 70.8082 43.768 71.6002 43.264C72.3922 42.736 73.1242 42.472 73.7962 42.472C74.2522 42.472 74.6962 42.544 75.1282 42.688C75.5602 42.808 75.9082 43.06 76.1722 43.444C76.4602 43.828 76.6042 44.392 76.6042 45.136C76.6042 45.4 76.5322 45.592 76.3882 45.712C76.2442 45.832 76.1122 45.892 75.9922 45.892C75.7282 45.892 75.5962 45.796 75.5962 45.604C75.4762 44.836 75.2242 44.332 74.8402 44.092C74.4802 43.852 74.1322 43.732 73.7962 43.732C73.3162 43.732 72.7522 43.972 72.1042 44.452C71.4562 44.932 70.7962 45.544 70.1242 46.288C69.4522 47.032 68.8162 47.836 68.2162 48.7C67.6402 49.54 67.1722 50.356 66.8122 51.148C66.4522 51.916 66.2722 52.552 66.2722 53.056C66.2722 53.296 66.3082 53.512 66.3802 53.704C66.4762 53.896 66.6202 53.992 66.8122 53.992C67.1722 53.992 67.6402 53.8 68.2162 53.416C68.7922 53.032 69.4042 52.54 70.0522 51.94C70.7242 51.316 71.3842 50.668 72.0322 49.996C72.6802 49.324 73.2682 48.688 73.7962 48.088C74.3242 47.488 74.7322 47.008 75.0202 46.648C75.1642 46.432 75.3442 46.324 75.5602 46.324C75.7282 46.324 75.8842 46.384 76.0282 46.504C76.1722 46.624 76.2442 46.78 76.2442 46.972C76.2442 47.068 76.2082 47.176 76.1362 47.296C75.9682 47.56 75.7642 47.932 75.5242 48.412C75.3082 48.892 75.0802 49.408 74.8402 49.96C74.6242 50.512 74.4322 51.028 74.2642 51.508C74.1202 51.964 74.0482 52.312 74.0482 52.552C74.0482 52.792 74.1322 52.912 74.3002 52.912C74.4202 52.912 74.5642 52.852 74.7322 52.732C74.9242 52.612 75.0922 52.504 75.2362 52.408C75.8122 51.928 76.3642 51.424 76.8922 50.896C77.4202 50.344 77.9002 49.828 78.3322 49.348C78.4282 49.228 78.5482 49.168 78.6922 49.168C78.8122 49.168 78.9202 49.24 79.0162 49.384C79.1362 49.504 79.1962 49.66 79.1962 49.852C79.1962 50.068 79.1362 50.248 79.0162 50.392C78.6322 50.896 78.1282 51.46 77.5042 52.084C76.8802 52.684 76.3282 53.164 75.8482 53.524C75.5362 53.74 75.1642 53.956 74.7322 54.172C74.3242 54.364 73.9282 54.46 73.5442 54.46C73.2562 54.46 73.0162 54.376 72.8242 54.208C72.6322 54.016 72.5362 53.692 72.5362 53.236C72.5362 52.876 72.5962 52.468 72.7162 52.012C72.8362 51.556 72.9802 51.088 73.1482 50.608C72.4762 51.328 71.7562 52.036 70.9882 52.732C70.2202 53.428 69.4762 54.016 68.7562 54.496C68.0602 54.952 67.4482 55.18 66.9202 55.18ZM80.5637 55.252C79.5557 55.252 78.7877 55 78.2597 54.496C77.7557 53.992 77.5037 53.344 77.5037 52.552C77.5037 51.64 77.6837 50.776 78.0437 49.96C78.4277 49.144 78.8597 48.388 79.3397 47.692C80.0357 46.684 80.8637 45.832 81.8237 45.136C82.8077 44.416 83.8277 44.056 84.8837 44.056C85.5797 44.056 86.0597 44.224 86.3237 44.56C86.5877 44.872 86.7197 45.268 86.7197 45.748C86.7197 46.252 86.6117 46.78 86.3957 47.332C86.1797 47.86 85.9397 48.28 85.6757 48.592C85.5077 48.784 85.3277 48.88 85.1357 48.88C84.7517 48.88 84.5597 48.712 84.5597 48.376C84.5597 48.208 84.6317 48.052 84.7757 47.908C84.8957 47.788 85.0397 47.512 85.2077 47.08C85.3997 46.624 85.4957 46.228 85.4957 45.892C85.4957 45.556 85.3877 45.376 85.1717 45.352C85.0997 45.328 85.0037 45.316 84.8837 45.316C84.4037 45.316 83.8637 45.508 83.2637 45.892C82.6637 46.252 82.0877 46.732 81.5357 47.332C80.9837 47.932 80.5157 48.568 80.1317 49.24C79.8197 49.768 79.5677 50.332 79.3757 50.932C79.1837 51.532 79.0877 52.048 79.0877 52.48C79.0877 52.936 79.2197 53.296 79.4837 53.56C79.7717 53.824 80.1797 53.956 80.7077 53.956C81.5477 53.956 82.4237 53.728 83.3357 53.272C84.2717 52.816 85.0277 52.348 85.6037 51.868C86.0837 51.46 86.5277 51.04 86.9357 50.608C87.3437 50.152 87.7277 49.732 88.0877 49.348C88.1837 49.228 88.3037 49.168 88.4477 49.168C88.5677 49.168 88.6757 49.24 88.7717 49.384C88.8917 49.504 88.9517 49.66 88.9517 49.852C88.9517 50.068 88.8917 50.248 88.7717 50.392C88.3877 50.896 87.8837 51.46 87.2597 52.084C86.6357 52.684 86.0837 53.164 85.6037 53.524C84.9317 54.004 84.1277 54.412 83.1917 54.748C82.2557 55.084 81.3797 55.252 80.5637 55.252ZM87.9971 55.288C87.8291 55.288 87.6731 55.228 87.5291 55.108C87.3851 55.012 87.3251 54.856 87.3491 54.64C87.4451 53.44 87.7811 52.036 88.3571 50.428C88.9571 48.82 89.6891 47.188 90.5531 45.532C90.2651 45.508 89.9771 45.472 89.6891 45.424C89.5211 45.376 89.3891 45.292 89.2931 45.172C89.1971 45.052 89.1491 44.932 89.1491 44.812C89.1491 44.692 89.1851 44.584 89.2571 44.488C89.3531 44.368 89.4851 44.308 89.6531 44.308C89.7971 44.308 89.9531 44.332 90.1211 44.38C90.3131 44.404 90.5171 44.416 90.7331 44.416C90.8771 44.416 91.0091 44.416 91.1291 44.416C91.9691 42.808 92.8571 41.296 93.7931 39.88C94.7291 38.44 95.5931 37.24 96.3851 36.28C96.8651 35.704 97.3691 35.152 97.8971 34.624C98.4251 34.096 98.9651 33.664 99.5171 33.328C100.093 32.968 100.645 32.788 101.173 32.788C101.869 32.788 102.349 32.98 102.613 33.364C102.901 33.724 103.045 34.18 103.045 34.732C103.045 35.524 102.829 36.328 102.397 37.144C102.037 37.816 101.497 38.596 100.777 39.484C100.057 40.348 99.2171 41.212 98.2571 42.076C97.3211 42.916 96.3011 43.648 95.1971 44.272C94.1171 44.896 93.0131 45.292 91.8851 45.46C91.3811 46.42 90.9251 47.368 90.5171 48.304C90.1331 49.24 89.7971 50.128 89.5091 50.968C89.7011 50.728 89.8931 50.488 90.0851 50.248C90.7091 49.48 91.3331 48.76 91.9571 48.088C92.5811 47.392 93.3731 46.696 94.3331 46C95.2931 45.304 96.1451 44.752 96.8891 44.344C97.6571 43.912 98.1611 43.708 98.4011 43.732C98.9051 43.804 99.1571 44.08 99.1571 44.56C99.1571 44.872 99.0611 45.232 98.8691 45.64C98.7011 46.024 98.5211 46.372 98.3291 46.684C98.1371 46.996 98.0051 47.212 97.9331 47.332C97.6691 47.74 97.3091 48.352 96.8531 49.168C96.3971 49.984 96.0131 50.776 95.7011 51.544C95.6051 51.808 95.5091 52.084 95.4131 52.372C95.3411 52.636 95.3051 52.864 95.3051 53.056C95.3051 53.368 95.4371 53.524 95.7011 53.524C95.9411 53.524 96.2891 53.404 96.7451 53.164C97.3211 52.852 97.8491 52.456 98.3291 51.976C98.8331 51.472 99.2651 51.04 99.6251 50.68C99.6491 50.656 99.7571 50.536 99.9491 50.32C100.165 50.104 100.369 49.888 100.561 49.672C100.777 49.456 100.885 49.348 100.885 49.348C100.981 49.228 101.101 49.168 101.245 49.168C101.365 49.168 101.473 49.24 101.569 49.384C101.689 49.504 101.749 49.66 101.749 49.852C101.749 50.068 101.689 50.248 101.569 50.392C101.209 50.896 100.717 51.448 100.093 52.048C99.4691 52.648 98.9171 53.14 98.4371 53.524C97.9331 53.908 97.4171 54.208 96.8891 54.424C96.3611 54.64 95.8811 54.748 95.4491 54.748C94.9931 54.748 94.6091 54.616 94.2971 54.352C94.0091 54.088 93.8651 53.668 93.8651 53.092C93.8651 52.564 93.9851 51.976 94.2251 51.328C94.5611 50.344 95.0531 49.372 95.7011 48.412C96.3731 47.452 96.9251 46.528 97.3571 45.64C95.6051 46.672 93.9851 47.932 92.4971 49.42C91.0091 50.908 89.7371 52.48 88.6811 54.136C88.6571 54.328 88.6331 54.52 88.6091 54.712C88.6091 54.904 88.5371 55.048 88.3931 55.144C88.2731 55.24 88.1411 55.288 87.9971 55.288ZM101.137 34.048C100.681 34.048 100.141 34.3 99.5171 34.804C98.8931 35.308 98.2451 35.968 97.5731 36.784C96.9251 37.576 96.2771 38.44 95.6291 39.376C94.9811 40.288 94.3931 41.176 93.8651 42.04C93.3371 42.88 92.9171 43.576 92.6051 44.128C93.5651 43.792 94.5971 43.264 95.7011 42.544C96.8051 41.824 97.8491 40.96 98.8331 39.952C99.8171 38.944 100.633 37.828 101.281 36.604C101.473 36.22 101.605 35.896 101.677 35.632C101.773 35.344 101.821 35.104 101.821 34.912C101.821 34.576 101.737 34.348 101.569 34.228C101.425 34.108 101.281 34.048 101.137 34.048ZM111.557 54.784C110.693 54.784 109.709 54.688 108.605 54.496C107.525 54.304 106.445 54.112 105.365 53.92C104.285 53.728 103.349 53.632 102.557 53.632C102.077 53.632 101.657 53.692 101.297 53.812C101.081 53.908 100.853 53.956 100.613 53.956C100.349 53.956 100.145 53.884 100.001 53.74C99.8811 53.572 99.8211 53.392 99.8211 53.2C99.8211 52.96 99.8931 52.732 100.037 52.516C100.205 52.3 100.421 52.168 100.685 52.12C103.277 50.848 105.473 49.72 107.273 48.736C109.073 47.728 110.609 46.78 111.881 45.892C113.801 44.596 115.265 43.456 116.273 42.472C117.281 41.488 117.881 40.648 118.073 39.952C118.145 39.688 118.181 39.448 118.181 39.232C118.181 38.68 117.953 38.2 117.497 37.792C117.041 37.36 116.237 37.144 115.085 37.144C113.909 37.144 112.829 37.372 111.845 37.828C110.885 38.284 110.033 38.8 109.289 39.376C108.569 39.928 107.981 40.396 107.525 40.78C107.261 41.02 107.021 41.14 106.805 41.14C106.469 41.14 106.301 40.936 106.301 40.528C106.301 40.192 106.469 39.832 106.805 39.448C107.213 39.016 107.825 38.512 108.641 37.936C109.457 37.36 110.417 36.856 111.521 36.424C112.625 35.968 113.813 35.74 115.085 35.74C116.645 35.74 117.809 36.076 118.577 36.748C119.369 37.396 119.765 38.212 119.765 39.196C119.765 39.316 119.753 39.448 119.729 39.592C119.729 39.712 119.717 39.832 119.693 39.952C119.477 41.08 118.745 42.232 117.497 43.408C116.273 44.56 114.737 45.736 112.889 46.936C111.785 47.656 110.489 48.424 109.001 49.24C107.537 50.056 105.653 51.1 103.349 52.372C104.021 52.42 104.765 52.54 105.581 52.732C106.421 52.9 107.285 53.056 108.173 53.2C109.061 53.344 109.913 53.416 110.729 53.416C111.089 53.416 111.437 53.392 111.773 53.344C112.109 53.296 112.433 53.224 112.745 53.128C112.865 53.08 113.081 52.972 113.393 52.804C113.729 52.612 114.005 52.396 114.221 52.156C114.365 52.012 114.521 51.94 114.689 51.94C114.857 51.94 114.989 52.012 115.085 52.156C115.205 52.3 115.265 52.468 115.265 52.66C115.265 52.852 115.193 53.056 115.049 53.272C114.161 54.28 112.997 54.784 111.557 54.784ZM130.12 54.784C129.256 54.784 128.272 54.688 127.168 54.496C126.088 54.304 125.008 54.112 123.928 53.92C122.848 53.728 121.912 53.632 121.12 53.632C120.64 53.632 120.22 53.692 119.86 53.812C119.644 53.908 119.416 53.956 119.176 53.956C118.912 53.956 118.708 53.884 118.564 53.74C118.444 53.572 118.384 53.392 118.384 53.2C118.384 52.96 118.456 52.732 118.6 52.516C118.768 52.3 118.984 52.168 119.248 52.12C121.84 50.848 124.036 49.72 125.836 48.736C127.636 47.728 129.172 46.78 130.444 45.892C132.364 44.596 133.828 43.456 134.836 42.472C135.844 41.488 136.444 40.648 136.636 39.952C136.708 39.688 136.744 39.448 136.744 39.232C136.744 38.68 136.516 38.2 136.06 37.792C135.604 37.36 134.8 37.144 133.648 37.144C132.472 37.144 131.392 37.372 130.408 37.828C129.448 38.284 128.596 38.8 127.852 39.376C127.132 39.928 126.544 40.396 126.088 40.78C125.824 41.02 125.584 41.14 125.368 41.14C125.032 41.14 124.864 40.936 124.864 40.528C124.864 40.192 125.032 39.832 125.368 39.448C125.776 39.016 126.388 38.512 127.204 37.936C128.02 37.36 128.98 36.856 130.084 36.424C131.188 35.968 132.376 35.74 133.648 35.74C135.208 35.74 136.372 36.076 137.14 36.748C137.932 37.396 138.328 38.212 138.328 39.196C138.328 39.316 138.316 39.448 138.292 39.592C138.292 39.712 138.28 39.832 138.256 39.952C138.04 41.08 137.308 42.232 136.06 43.408C134.836 44.56 133.3 45.736 131.452 46.936C130.348 47.656 129.052 48.424 127.564 49.24C126.1 50.056 124.216 51.1 121.912 52.372C122.584 52.42 123.328 52.54 124.144 52.732C124.984 52.9 125.848 53.056 126.736 53.2C127.624 53.344 128.476 53.416 129.292 53.416C129.652 53.416 130 53.392 130.336 53.344C130.672 53.296 130.996 53.224 131.308 53.128C131.428 53.08 131.644 52.972 131.956 52.804C132.292 52.612 132.568 52.396 132.784 52.156C132.928 52.012 133.084 51.94 133.252 51.94C133.42 51.94 133.552 52.012 133.648 52.156C133.768 52.3 133.828 52.468 133.828 52.66C133.828 52.852 133.756 53.056 133.612 53.272C132.724 54.28 131.56 54.784 130.12 54.784Z" fill="white"/>
</svg>
